{
  "accessors": [
    {
      "bufferView": 2,
      "componentType": 5126,
      "count": 2760,
      "max": [
        0.19149819016456604,
        3.5030529499053955,
        0.6395455002784729
      ],
      "min": [
        -0.19150149822235107,
        -3.5039825439453125,
        -0.6396952271461487
      ],
      "type": "VEC3"
    },
    {
      "bufferView": 2,
      "byteOffset": 33120,
      "componentType": 5126,
      "count": 2760,
      "max": [
        0.9999962449073792,
        0.9547379612922668,
        0.9973002076148987
      ],
      "min": [
        -0.9999964237213135,
        -0.9113276600837708,
        -0.9992871284484863
      ],
      "type": "VEC3"
    },
    {
      "bufferView": 1,
      "componentType": 5126,
      "count": 2760,
      "max": [
        0.6250180006027222,
        0.8030847311019897
      ],
      "min": [
        0.37471821904182434,
        -1.862645149230957e-08
      ],
      "type": "VEC2"
    },
    {
      "bufferView": 0,
      "componentType": 5125,
      "count": 11904,
      "type": "SCALAR"
    },
    {
      "bufferView": 2,
      "byteOffset": 66240,
      "componentType": 5126,
      "count": 1512,
      "max": [
        0.1879269778728485,
        3.504157543182373,
        0.5823017358779907
      ],
      "min": [
        -0.18789997696876526,
        -3.5039825439453125,
        -0.5825225710868835
      ],
      "type": "VEC3"
    },
    {
      "bufferView": 2,
      "byteOffset": 84384,
      "componentType": 5126,
      "count": 1512,
      "max": [
        0.9993570446968079,
        0.9999997615814209,
        0.9988305568695068
      ],
      "min": [
        -0.9993632435798645,
        -0.9999955296516418,
        -0.999262273311615
      ],
      "type": "VEC3"
    },
    {
      "bufferView": 3,
      "componentType": 5126,
      "count": 1512,
      "max": [
        0.9241271018981934,
        0.9997708201408386,
        0.9711483120918274,
        1.0
      ],
      "min": [
        -0.9993710517883301,
        -0.9999452829360962,
        -0.9403788447380066,
        -1.0
      ],
      "type": "VEC4"
    },
    {
      "bufferView": 1,
      "byteOffset": 22080,
      "componentType": 5126,
      "count": 1512,
      "max": [
        0.6250180006027222,
        0.9772062301635742
      ],
      "min": [
        0.3747902512550354,
        0.022657038643956184
      ],
      "type": "VEC2"
    },
    {
      "bufferView": 0,
      "byteOffset": 47616,
      "componentType": 5125,
      "count": 5952,
      "type": "SCALAR"
    },
    {
      "bufferView": 4,
      "componentType": 5126,
      "count": 499,
      "max": [
        16.66666603088379
      ],
      "min": [
        0.0416666679084301
      ],
      "type": "SCALAR"
    },
    {
      "bufferView": 5,
      "componentType": 5126,
      "count": 499,
      "max": [
        0.0,
        0.0,
        0.9999998211860657,
        1.0
      ],
      "min": [
        0.0,
        0.0,
        -0.8659020662307739,
        -0.49294313788414
      ],
      "type": "VEC4"
    }
  ],
  "animations": [
    {
      "channels": [
        {
          "sampler": 0,
          "target": {
            "node": 4,
            "path": "rotation"
          }
        }
      ],
      "name": "Take 001",
      "samplers": [
        {
          "input": 9,
          "interpolation": "LINEAR",
          "output": 10
        }
      ]
    }
  ],
  "asset": {
    "extras": {
      "author": "Adrien Munoz-Pascal (https://sketchfab.com/Audiophobia)",
      "license": "CC-BY-4.0 (http://creativecommons.org/licenses/by/4.0/)",
      "source": "https://sketchfab.com/3d-models/moebius-inktober-ring-64934db5eaec4b158a7b8bf1dd3e3923",
      "title": "Moebius_Inktober_Ring"
    },
    "generator": "Sketchfab-12.66.0",
    "version": "2.0"
  },
  "bufferViews": [
    {
      "buffer": 0,
      "byteLength": 71424,
      "name": "floatBufferViews",
      "target": 34963
    },
    {
      "buffer": 0,
      "byteLength": 34176,
      "byteOffset": 71424,
      "byteStride": 8,
      "name": "floatBufferViews",
      "target": 34962
    },
    {
      "buffer": 0,
      "byteLength": 102528,
      "byteOffset": 105600,
      "byteStride": 12,
      "name": "floatBufferViews",
      "target": 34962
    },
    {
      "buffer": 0,
      "byteLength": 24192,
      "byteOffset": 208128,
      "byteStride": 16,
      "name": "floatBufferViews",
      "target": 34962
    },
    {
      "buffer": 0,
      "byteLength": 1996,
      "byteOffset": 232320,
      "name": "floatBufferViews"
    },
    {
      "buffer": 0,
      "byteLength": 7984,
      "byteOffset": 234316,
      "byteStride": 16,
      "name": "floatBufferViews"
    }
  ],
  "buffers": [
    {
      "byteLength": 242300,
      "uri": "scene.bin"
    }
  ],
  "images": [
    {
      "uri": "textures/noir_baseColor.png"
    },
    {
      "uri": "textures/noir_metallicRoughness.png"
    },
    {
      "uri": "textures/noir_normal.png"
    }
  ],
  "materials": [
    {
      "doubleSided": true,
      "emissiveFactor": [
        1.0,
        1.0,
        1.0
      ],
      "name": "emissive",
      "pbrMetallicRoughness": {
        "metallicFactor": 0.0,
        "roughnessFactor": 0.6
      }
    },
    {
      "doubleSided": true,
      "name": "noir",
      "normalTexture": {
        "index": 2
      },
      "pbrMetallicRoughness": {
        "baseColorTexture": {
          "index": 0
        },
        "metallicFactor": 0.0,
        "metallicRoughnessTexture": {
          "index": 1
        }
      }
    }
  ],
  "meshes": [
    {
      "name": "pCube431_emissive_0",
      "primitives": [
        {
          "attributes": {
            "NORMAL": 1,
            "POSITION": 0,
            "TEXCOORD_0": 2
          },
          "indices": 3,
          "material": 0,
          "mode": 4
        }
      ]
    },
    {
      "name": "pCube431_noir_0",
      "primitives": [
        {
          "attributes": {
            "NORMAL": 5,
            "POSITION": 4,
            "TANGENT": 6,
            "TEXCOORD_0": 7
          },
          "indices": 8,
          "material": 1,
          "mode": 4
        }
      ]
    }
  ],
  "nodes": [
    {
      "children": [
        1
      ],
      "matrix": [
        1.0,
        0.0,
        0.0,
        0.0,
        0.0,
        2.220446049250313e-16,
        -1.0,
        0.0,
        0.0,
        1.0,
        2.220446049250313e-16,
        0.0,
        0.0,
        0.0,
        0.0,
        1.0
      ],
      "name": "Sketchfab_model"
    },
    {
      "children": [
        2
      ],
      "matrix": [
        1.0,
        0.0,
        0.0,
        0.0,
        0.0,
        0.0,
        1.0,
        0.0,
        0.0,
        -1.0,
        0.0,
        0.0,
        0.0,
        0.0,
        0.0,
        1.0
      ],
      "name": "a4778e100ce44e46a027f2609c5d5b8e.fbx"
    },
    {
      "children": [
        3
      ],
      "name": "Object_2"
    },
    {
      "children": [
        4
      ],
      "name": "RootNode"
    },
    {
      "children": [
        5,
        6
      ],
      "name": "pCube431",
      "rotation": [
        0.0,
        -0.0,
        -0.04038156569004059,
        0.9991844296455383
      ],
      "scale": [
        36.46671676635742,
        1.9163280725479126,
        1.9163280725479126
      ],
      "translation": [
        0.00016092101577669382,
        -7.072594165802002,
        4.2498111724853516e-05
      ]
    },
    {
      "mesh": 0,
      "name": "pCube431_emissive_0"
    },
    {
      "mesh": 1,
      "name": "pCube431_noir_0"
    }
  ],
  "samplers": [
    {
      "magFilter": 9729,
      "minFilter": 9987,
      "wrapS": 10497,
      "wrapT": 10497
    }
  ],
  "scene": 0,
  "scenes": [
    {
      "name": "Sketchfab_Scene",
      "nodes": [
        0
      ]
    }
  ],
  "textures": [
    {
      "sampler": 0,
      "source": 0
    },
    {
      "sampler": 0,
      "source": 1
    },
    {
      "sampler": 0,
      "source": 2
    }
  ]
}
